<?xml version="1.0" encoding="UTF-8" standalone="no"?>
<svg
   version="1.0"
   width="113.8203pt"
   height="139.08803pt"
   viewBox="0 0 284.55074 347.72008"
   preserveAspectRatio="xMidYMid"
   id="svg4"
   xml:space="preserve"
   xmlns="http://www.w3.org/2000/svg"
   xmlns:svg="http://www.w3.org/2000/svg"><defs
     id="defs4"><filter
       style="color-interpolation-filters:sRGB"
       id="filter60-8-38-8"
       x="-0.15587796"
       y="-0.36785617"
       width="1.3117559"
       height="1.7081508"><feFlood
         result="flood"
         flood-opacity="0.68999999999999995"
         flood-color="rgb(0,18,128)"
         id="feFlood59-3-6-7"
         in="SourceGraphic" /><feGaussianBlur
         result="blur"
         stdDeviation="126.091 252.266"
         id="feGaussianBlur59-9-1-7"
         in="SourceGraphic" /><feOffset
         result="offset"
         in="blur"
         dx="0"
         dy="-49.230769230769234"
         id="feOffset59-0-9-4"
         preserveAlpha="true" /><feComposite
         result="comp1"
         operator="in"
         in="flood"
         in2="offset"
         id="feComposite59-5-67-4" /><feComposite
         result="comp2"
         operator="over"
         in="SourceGraphic"
         id="feComposite60-2-8-9"
         in2="comp1" /><feGaussianBlur
         stdDeviation="1"
         id="feGaussianBlur70-2-9-1" /></filter></defs><g
     id="g37-5-9"
     transform="translate(-1284.5465,-917.64769)"><g
       id="path13-5-8"
       style="fill:#000000;stroke:none;filter:url(#filter60-8-38-8)"
       transform="matrix(0.10968999,7.64482e-4,9.82262e-4,-0.11332158,-258.4385,1158.6402)"><path
         style="baseline-shift:baseline;display:inline;overflow:visible;vector-effect:none;fill:#93b1ee;fill-rule:evenodd;stroke-linecap:round;stroke-linejoin:round;enable-background:accumulate;stop-color:#000000;stop-opacity:1"
         d="m 14451.306,620.79022 407.168,707.45158 a 566.28578,566.28578 0.77267275 0 0 973.807,13.1333 l 423.06,-691.24829 a 537.05991,537.05991 60.847006 0 0 -455.955,-817.40944 l -888.252,-3.51068 a 528.13923,528.13923 120.15212 0 0 -459.828,791.58353 z"
         id="path33-2-2" /><path
         style="baseline-shift:baseline;display:inline;overflow:visible;vector-effect:none;fill:#93b1ee;fill-rule:evenodd;stroke-linecap:round;stroke-linejoin:round;enable-background:accumulate;stop-color:#000000;stop-opacity:1"
         d="m 14911.141,-172.47461 c -189.529,-0.74908 -365.029,99.804121 -460.229,263.689454 -95.2,163.885336 -95.604,366.148056 -1.062,530.414066 l 407.166,707.45119 c 99.991,173.7339 284.166,281.8984 484.601,284.6015 200.436,2.7032 387.458,-100.4535 492.098,-271.4277 l 423.06,-691.24999 c 101.562,-165.94478 105.76,-373.76474 10.983,-543.67578 -94.777,-169.911053 -273.81,-275.52402 -468.365,-276.29297 z m -0.01,3.36328 888.252,3.50977 c 193.347,0.76417 371.253,105.713135 465.441,274.56836 94.189,168.85522 90.017,375.36765 -10.914,540.28125 l -423.058,691.24995 c -104.023,169.9661 -289.932,272.5076 -489.186,269.8204 -199.254,-2.6873 -382.329,-110.2066 -481.73,-282.9161 l -407.168,-707.45113 c -93.945,-163.2279 -93.542,-364.19724 1.056,-527.046873 94.599,-162.849635 268.977,-262.759967 457.307,-262.015627 z"
         id="path34-4-0" /></g><g
       id="path13-2-9-7"
       style="fill:#000000;stroke:none"
       transform="matrix(0.06098978,4.35986e-4,5.46157e-4,-0.06462748,489.82075,1135.6151)"><path
         style="baseline-shift:baseline;display:inline;overflow:visible;vector-effect:none;fill:#234fc2;fill-rule:evenodd;stroke-linecap:round;stroke-linejoin:round;enable-background:accumulate;stop-color:#000000;stop-opacity:1"
         d="m 14519.211,738.77474 289.524,503.04526 a 625.47916,625.47916 0.77267275 0 0 1075.598,14.506 l 318.956,-521.15015 a 593.19834,593.19834 60.847006 0 0 -503.616,-902.85258 l -652.41,-2.57855 a 606.49874,606.49874 120.15212 0 0 -528.052,909.03002 z"
         id="path35-4-4" /><path
         style="baseline-shift:baseline;display:inline;overflow:visible;vector-effect:none;fill:#93b1ee;fill-rule:evenodd;stroke-linecap:round;stroke-linejoin:round;enable-background:accumulate;stop-color:#000000;stop-opacity:1"
         d="m 15047.275,-173.24219 c -218.024,-0.8617 -419.914,114.812119 -529.427,303.33789 -109.514,188.52578 -109.981,421.20429 -1.225,610.16797 l 289.523,503.04683 c 110.641,192.2381 314.436,311.923 536.219,314.9141 221.784,2.9911 428.731,-111.1555 544.516,-300.3398 l 318.955,-521.15043 c 112.39,-183.63696 117.036,-413.61843 12.154,-601.64453 -104.882,-188.026097 -303.006,-304.90297 -518.304,-305.7539 z m -0.02,5.97266 652.41,2.58008 c 213.151,0.84244 409.275,116.538322 513.111,302.68945 103.836,186.15113 99.238,413.81143 -12.031,595.61719 l -318.957,521.15041 c -114.689,187.394 -319.655,300.4471 -539.34,297.4844 -219.684,-2.9628 -421.529,-121.5031 -531.123,-311.9219 l -289.523,-503.04494 c -107.696,-187.12019 -107.233,-417.50291 1.213,-604.18946 108.445,-186.686544 308.343,-301.21853 524.24,-300.36523 z"
         id="path36-4-8" /></g><g
       id="g36-7-5"
       transform="matrix(0.1,0,0,-0.1,163.44319,647.78795)"
       style="fill:#000000;stroke:none"><path
         style="baseline-shift:baseline;display:inline;overflow:visible;opacity:1;vector-effect:none;fill:#93b1ee;fill-rule:evenodd;stroke-linecap:round;stroke-linejoin:round;enable-background:accumulate;stop-color:#000000;stop-opacity:1"
         d="m 12097.34,4587.2734 c -128.746,0 -233.512,105.6358 -233.512,234.9825 0,129.3467 104.766,234.9844 233.512,234.9843 128.745,1e-4 233.512,-105.6376 233.512,-234.9843 0,-129.3467 -104.767,-234.9825 -233.512,-234.9825 z m 0,55 c 98.809,0 178.512,80.1492 178.512,179.9825 0,99.8333 -79.703,179.9844 -178.512,179.9843 -98.809,1e-4 -178.512,-80.151 -178.512,-179.9843 0,-99.8333 79.703,-179.9825 178.512,-179.9825 z"
         id="path32-9-8"
         transform="matrix(1.0000001,0,0,-1.0000001,-8.9867617e-6,-1.6212872e-5)" /><path
         style="baseline-shift:baseline;display:inline;overflow:visible;opacity:1;vector-effect:none;fill:#ed513b;fill-rule:evenodd;stroke-linecap:round;stroke-linejoin:round;enable-background:accumulate;stop-color:#000000;stop-opacity:1"
         d="m 12303.352,4822.2568 a 206.0119,207.48343 0 0 1 -206.012,207.4835 206.0119,207.48343 0 0 1 -206.012,-207.4835 206.0119,207.48343 0 0 1 206.012,-207.4834 206.0119,207.48343 0 0 1 206.012,207.4834 z"
         id="path31-5-3"
         transform="matrix(1.0000001,0,0,-1.0000001,-8.9867617e-6,-1.6212872e-5)" /></g></g></svg>
